<?xml version="1.0" encoding="UTF-8" standalone="no"?>
<svg
   version="1.1"
   width="512"
   height="512"
   viewBox="0 0 512 512"
   xml:space="preserve"
   id="svg3"
   sodipodi:docname="logo.svg"
   inkscape:version="1.3.2 (091e20ef0f, 2023-11-25)"
   xmlns:inkscape="http://www.inkscape.org/namespaces/inkscape"
   xmlns:sodipodi="http://sodipodi.sourceforge.net/DTD/sodipodi-0.dtd"
   xmlns="http://www.w3.org/2000/svg"
   xmlns:svg="http://www.w3.org/2000/svg"><sodipodi:namedview
   id="namedview3"
   pagecolor="#505050"
   bordercolor="#eeeeee"
   borderopacity="1"
   inkscape:showpageshadow="0"
   inkscape:pageopacity="0"
   inkscape:pagecheckerboard="0"
   inkscape:deskcolor="#d1d1d1"
   inkscape:zoom="0.57797693"
   inkscape:cx="174.74746"
   inkscape:cy="222.32721"
   inkscape:window-width="1916"
   inkscape:window-height="1046"
   inkscape:window-x="0"
   inkscape:window-y="0"
   inkscape:window-maximized="0"
   inkscape:current-layer="svg3" />
<desc
   id="desc1">Created with Fabric.js 5.2.4</desc>
<defs
   id="defs1">
</defs>
<g
   transform="matrix(0 0 0 0 0 0)"
   id="f70c0524-b180-4252-8bce-579bb1d9cdf1">
</g>
<g
   transform="matrix(1 0 0 1 256 256)"
   id="c5f4c110-c9bd-4ebe-82b2-7876bfc71a58">
<rect
   style="stroke: none; stroke-width: 1; stroke-dasharray: none; stroke-linecap: butt; stroke-dashoffset: 0; stroke-linejoin: miter; stroke-miterlimit: 4; fill: rgb(255,255,255); fill-rule: nonzero; opacity: 1; visibility: hidden;"
   vector-effect="non-scaling-stroke"
   x="-256"
   y="-256"
   rx="0"
   ry="0"
   width="512"
   height="512"
   id="rect1" />
</g>
<g
   transform="matrix(1.92 0 0 2.02 256 256)"
   id="g1">
<path
   style="stroke: none; stroke-width: 1; stroke-dasharray: none; stroke-linecap: butt; stroke-dashoffset: 0; stroke-linejoin: miter; stroke-miterlimit: 4; fill: rgb(55,79,190); fill-rule: nonzero; opacity: 1;"
   vector-effect="non-scaling-stroke"
   transform=" translate(-147.41, -129.49)"
   d="M 273.336 124.488 L 215.469 23.816 C 213.367 20.176 209.48399999999998 17.491 205.281 17.491 L 89.545 17.491 C 85.34100000000001 17.491 81.45700000000001 20.176 79.355 23.816 L 21.488000000000007 124.266 C 19.386000000000006 127.90700000000001 19.386000000000006 132.502 21.488000000000007 136.143 L 79.355 235.99 C 81.45700000000001 239.63 85.34100000000001 241.491 89.545 241.491 L 205.28 241.491 C 209.483 241.491 213.367 239.686 215.468 236.04500000000002 L 273.335 136.03500000000003 C 275.439 132.396 275.439 128.128 273.336 124.488 M 225.419 172.898 C 225.419 174.378 224.52800000000002 175.74699999999999 223.245 176.488 L 149.53500000000003 219.015 C 148.25300000000001 219.755 146.64700000000002 219.755 145.36500000000004 219.015 L 71.59800000000004 176.488 C 70.31600000000005 175.74699999999999 69.41900000000004 174.379 69.41900000000004 172.898 L 69.41900000000004 87.843 C 69.41900000000004 86.36200000000001 70.30300000000004 84.994 71.58600000000004 84.253 L 145.29300000000003 41.726 C 146.57500000000005 40.985 148.17900000000003 40.985 149.46100000000004 41.726 L 223.23300000000006 84.253 C 224.51600000000005 84.994 225.41900000000007 86.362 225.41900000000007 87.843 L 225.41900000000007 172.898 z"
   stroke-linecap="round"
   id="path1" />
</g>
<g
   transform="matrix(0.55552261,0,0,0.55552261,256.23,280.19025)"
   id="g2">
<path
   style="opacity:1;fill:#f498b3;fill-rule:nonzero;stroke:#000000;stroke-width:0;stroke-linecap:butt;stroke-linejoin:miter;stroke-miterlimit:4;stroke-dasharray:none;stroke-dashoffset:0"
   vector-effect="non-scaling-stroke"
   transform="translate(-256,-261.08)"
   d="m 47.6,300.4 180.7,168.7 c 7.5,7 17.4,10.9 27.7,10.9 10.3,0 20.2,-3.9 27.7,-10.9 L 464.4,300.4 c 30.4,-28.3 47.6,-68 47.6,-109.5 v -5.8 C 512,115.2 461.5,55.6 392.6,44.1 347,36.5 300.6,51.4 268,84 L 256,96 244,84 C 211.4,51.4 165,36.5 119.4,44.1 50.5,55.6 0,115.2 0,185.1 v 5.8 c 0,41.5 17.2,81.2 47.6,109.5 z"
   stroke-linecap="round"
   id="path2" />
</g>

</svg>
