<?xml version="1.0" encoding="UTF-8" standalone="no" ?>
<!DOCTYPE svg PUBLIC "-//W3C//DTD SVG 1.1//EN" "http://www.w3.org/Graphics/SVG/1.1/DTD/svg11.dtd">
<svg xmlns="http://www.w3.org/2000/svg" xmlns:xlink="http://www.w3.org/1999/xlink" version="1.1" width="512" height="512" viewBox="0 0 512 512" xml:space="preserve">
<desc>Created with Fabric.js 5.2.4</desc>
<defs>
</defs>
<g transform="matrix(0 0 0 0 0 0)" id="f70c0524-b180-4252-8bce-579bb1d9cdf1"  >
</g>
<g transform="matrix(1 0 0 1 256 256)" id="c5f4c110-c9bd-4ebe-82b2-7876bfc71a58"  >
<rect style="stroke: none; stroke-width: 1; stroke-dasharray: none; stroke-linecap: butt; stroke-dashoffset: 0; stroke-linejoin: miter; stroke-miterlimit: 4; fill: rgb(255,255,255); fill-rule: nonzero; opacity: 1; visibility: hidden;" vector-effect="non-scaling-stroke"  x="-256" y="-256" rx="0" ry="0" width="512" height="512" />
</g>
<g transform="matrix(1.92 0 0 2.02 256 256)"  >
<path style="stroke: none; stroke-width: 1; stroke-dasharray: none; stroke-linecap: butt; stroke-dashoffset: 0; stroke-linejoin: miter; stroke-miterlimit: 4; fill: rgb(55,79,190); fill-rule: nonzero; opacity: 1;" vector-effect="non-scaling-stroke"  transform=" translate(-147.41, -129.49)" d="M 273.336 124.488 L 215.469 23.816 C 213.367 20.176 209.48399999999998 17.491 205.281 17.491 L 89.545 17.491 C 85.34100000000001 17.491 81.45700000000001 20.176 79.355 23.816 L 21.488000000000007 124.266 C 19.386000000000006 127.90700000000001 19.386000000000006 132.502 21.488000000000007 136.143 L 79.355 235.99 C 81.45700000000001 239.63 85.34100000000001 241.491 89.545 241.491 L 205.28 241.491 C 209.483 241.491 213.367 239.686 215.468 236.04500000000002 L 273.335 136.03500000000003 C 275.439 132.396 275.439 128.128 273.336 124.488 M 225.419 172.898 C 225.419 174.378 224.52800000000002 175.74699999999999 223.245 176.488 L 149.53500000000003 219.015 C 148.25300000000001 219.755 146.64700000000002 219.755 145.36500000000004 219.015 L 71.59800000000004 176.488 C 70.31600000000005 175.74699999999999 69.41900000000004 174.379 69.41900000000004 172.898 L 69.41900000000004 87.843 C 69.41900000000004 86.36200000000001 70.30300000000004 84.994 71.58600000000004 84.253 L 145.29300000000003 41.726 C 146.57500000000005 40.985 148.17900000000003 40.985 149.46100000000004 41.726 L 223.23300000000006 84.253 C 224.51600000000005 84.994 225.41900000000007 86.362 225.41900000000007 87.843 L 225.41900000000007 172.898 z" stroke-linecap="round" />
</g>
<g transform="matrix(0.8 0 0 0.8 256.23 289.66)"  >
<path style="stroke: rgb(0,0,0); stroke-width: 0; stroke-dasharray: none; stroke-linecap: butt; stroke-dashoffset: 0; stroke-linejoin: miter; stroke-miterlimit: 4; fill: rgb(244,152,179); fill-rule: nonzero; opacity: 1;" vector-effect="non-scaling-stroke"  transform=" translate(-256, -261.08)" d="M 47.6 300.4 L 228.3 469.1 C 235.8 476.1 245.70000000000002 480 256 480 C 266.29999999999995 480 276.2 476.1 283.7 469.1 L 464.4 300.4 C 494.79999999999995 272.09999999999997 512 232.39999999999998 512 190.89999999999998 L 512 185.09999999999997 C 512 115.19999999999996 461.5 55.599999999999966 392.6 44.099999999999966 C 347 36.5 300.6 51.4 268 84 L 256 96 L 244 84 C 211.4 51.4 165 36.5 119.4 44.1 C 50.5 55.6 0 115.2 0 185.1 L 0 190.9 C 0 232.4 17.2 272.1 47.6 300.4 z" stroke-linecap="round" />
</g>
<g transform="matrix(1.01 0 0 1.07 254.5 263.39)"  >
<path style="stroke: none; stroke-width: 1; stroke-dasharray: none; stroke-linecap: butt; stroke-dashoffset: 0; stroke-linejoin: miter; stroke-miterlimit: 4; fill: rgb(55,79,190); fill-rule: nonzero; opacity: 1;" vector-effect="non-scaling-stroke"  transform=" translate(-250.3, -225.22)" d="M 163.217 179.207 L 163.217 189.362 L 195.611 189.362 L 195.611 281.562 L 218.599 281.562 L 218.599 189.362 L 250.993 189.362 L 250.993 179.394 C 250.993 173.788 250.993 169.24 250.744 169.115 C 250.744 168.928 230.996 168.866 207.012 168.866 L 163.403 169.053 L 163.403 179.27 L 163.217 179.207 Z M 308.805 168.804 C 315.16 170.299 320.019 173.165 324.38 177.712 C 326.685 180.204 330.111 184.565 330.36 185.686 C 330.36 186.06 319.583 193.349 313.041 197.398 C 312.792 197.585 311.796 196.526 310.799 194.906 C 307.559 190.296 304.258 188.303 299.087 187.929 C 291.611 187.431 286.627 191.355 286.627 197.897 C 286.627 199.89 287.001 201.012 287.749 202.631 C 289.431 206.058 292.546 208.113 302.202 212.35 C 320.019 220.012 327.744 225.058 332.416 232.285 C 337.711 240.383 338.895 253.092 335.344 262.624 C 331.357 273.027 321.639 280.067 307.746 282.372 C 303.385 283.119 293.418 282.995 288.746 282.185 C 278.778 280.316 269.247 275.332 263.391 268.916 C 261.086 266.424 256.662 259.758 256.912 259.322 L 259.279 257.827 L 268.624 252.407 L 275.663 248.295 L 277.283 250.476 C 279.339 253.715 283.949 258.076 286.627 259.571 C 294.726 263.745 305.566 263.184 310.923 258.325 C 313.228 256.207 314.225 253.964 314.225 250.849 C 314.225 247.984 313.789 246.675 312.356 244.495 C 310.363 241.754 306.376 239.511 295.162 234.527 C 282.267 229.045 276.784 225.557 271.676 220.199 C 268.748 216.96 266.069 211.914 264.823 207.74 C 263.889 204.126 263.577 195.28 264.45 191.729 C 267.128 179.27 276.535 170.548 289.991 168.056 C 294.352 167.184 304.631 167.558 308.93 168.679 L 308.805 168.804 Z" stroke-linecap="round" />
</g>
</svg>